ffmpeg started on 2025-06-07 at 16:20:19
Report written to "D:\Convert\FFMetrics\reports\psnr_report-6.txt"
Log level: 32
Command line:
ffmpeg -hide_banner -nostdin -i "G:\\\xc0\xed\xe8\xec\xe5\\\xce\xed\xe3\xee\xe8\xed\xe3\xe8\\!_36_\xce\xf1\xe5\xed\xfc_2024\\DreamCast\\\xd6\xe5\xeb\xe8\xf2\xe5\xeb\xfc, \xea\xee\xf2\xee\xf0\xee\xe3\xee \xe8\xf1\xea\xeb\xfe\xf7\xe8\xeb\xe8 \xe8\xe7 \xe3\xf0\xf3\xef\xef\xfb, \xee\xea\xe0\xe7\xe0\xeb\xf1\xff \xf1\xe8\xeb\xfc\xed\xe5\xe9\xf8\xe8\xec!\\[DC] sonochiyushi - 12_Telegram_HEVC.mkv" -i "G:\\\xc0\xed\xe8\xec\xe5\\\xce\xed\xe3\xee\xe8\xed\xe3\xe8\\!_36_\xce\xf1\xe5\xed\xfc_2024\\DreamCast\\\xd6\xe5\xeb\xe8\xf2\xe5\xeb\xfc, \xea\xee\xf2\xee\xf0\xee\xe3\xee \xe8\xf1\xea\xeb\xfe\xf7\xe8\xeb\xe8 \xe8\xe7 \xe3\xf0\xf3\xef\xef\xfb, \xee\xea\xe0\xe7\xe0\xeb\xf1\xff \xf1\xe8\xeb\xfc\xed\xe5\xe9\xf8\xe8\xec!\\[DC] sonochiyushi - 12_Telegram.mp4" -lavfi "[0:v]settb=AVTB,setpts=PTS-STARTPTS,format=pix_fmts=yuv420p10,fps=24000/1001,scale=1920:1080:flags=bicubic[main];[1:v]settb=AVTB,setpts=PTS-STARTPTS,format=pix_fmts=yuv420p,fps=24000/1001,scale=1920:1080:flags=bicubic[ref];[main][ref]psnr=eof_action=endall:stats_file='D\\:/Convert/FFMetrics/logs/psnr_logfile-6.txt'" -f null -
Input #0, matroska,webm, from 'G:\Аниме\Онгоинги\!_36_Осень_2024\DreamCast\Целитель, которого исключили из группы, оказался сильнейшим!\[DC] sonochiyushi - 12_Telegram_HEVC.mkv':
  Metadata:
    COMPATIBLE_BRANDS: isomiso2avc1mp41
    MAJOR_BRAND     : isom
    MINOR_VERSION   : 512
    ENCODER         : Lavf61.7.100
  Duration: 00:23:30.65, start: -0.021000, bitrate: 1234 kb/s
  Stream #0:0: Video: hevc (Main 10), yuv420p10le(tv, bt709, progressive), 1920x1080 [SAR 1:1 DAR 16:9], 23.98 fps, 23.98 tbr, 1k tbn (default)
      Metadata:
        HANDLER_NAME    : VideoHandler
        VENDOR_ID       : [0][0][0][0]
        ENCODER         : Lavc61.19.100 libx265
        BPS             : 1037021
        DURATION        : 00:23:30.450708333
        NUMBER_OF_FRAMES: 33817
        NUMBER_OF_BYTES : 182833345
        _STATISTICS_WRITING_APP: mkvpropedit v66.0.0 ('Josie') 64-bit
        _STATISTICS_WRITING_DATE_UTC: 2025-06-05 09:33:36
        _STATISTICS_TAGS: BPS DURATION NUMBER_OF_FRAMES NUMBER_OF_BYTES
  Stream #0:1: Audio: aac (LC), 48000 Hz, stereo, fltp (default)
      Metadata:
        HANDLER_NAME    : SoundHandler
        VENDOR_ID       : [0][0][0][0]
        ENCODER         : Lavc61.19.100 aac
        BPS             : 193704
        DURATION        : 00:23:30.645000000
        NUMBER_OF_FRAMES: 66125
        NUMBER_OF_BYTES : 34156099
        _STATISTICS_WRITING_APP: mkvpropedit v66.0.0 ('Josie') 64-bit
        _STATISTICS_WRITING_DATE_UTC: 2025-06-05 09:33:36
        _STATISTICS_TAGS: BPS DURATION NUMBER_OF_FRAMES NUMBER_OF_BYTES
Input #1, mov,mp4,m4a,3gp,3g2,mj2, from 'G:\Аниме\Онгоинги\!_36_Осень_2024\DreamCast\Целитель, которого исключили из группы, оказался сильнейшим!\[DC] sonochiyushi - 12_Telegram.mp4':
  Metadata:
    major_brand     : isom
    minor_version   : 512
    compatible_brands: isomiso2avc1mp41
    encoder         : Lavf61.1.100
  Duration: 00:23:30.58, start: 0.000000, bitrate: 3601 kb/s
  Stream #1:0[0x1](und): Video: h264 (High) (avc1 / 0x31637661), yuv420p(tv, bt709, progressive), 1920x1080 [SAR 1:1 DAR 16:9], 3454 kb/s, 23.98 fps, 23.98 tbr, 24k tbn (default)
      Metadata:
        handler_name    : VideoHandler
        vendor_id       : [0][0][0][0]
        encoder         : Lavc61.3.100 h264_qsv
  Stream #1:1[0x2](und): Audio: aac (HE-AACv2) (mp4a / 0x6134706D), 48000 Hz, stereo, fltp, 144 kb/s (default)
      Metadata:
        handler_name    : SoundHandler
        vendor_id       : [0][0][0][0]
Stream mapping:
  Stream #0:0 (hevc) -> settb:default
  Stream #1:0 (h264) -> settb:default
  psnr:default -> Stream #0:0 (wrapped_avframe)
  Stream #0:1 -> #0:1 (aac (native) -> pcm_s16le (native))
Output #0, null, to 'pipe:':
  Metadata:
    COMPATIBLE_BRANDS: isomiso2avc1mp41
    MAJOR_BRAND     : isom
    MINOR_VERSION   : 512
    encoder         : Lavf61.7.100
  Stream #0:0: Video: wrapped_avframe, yuv420p10le(tv, bt709, progressive), 1920x1080 [SAR 1:1 DAR 16:9], q=2-31, 200 kb/s, 23.98 fps, 23.98 tbn
      Metadata:
        encoder         : Lavc61.19.100 wrapped_avframe
  Stream #0:1: Audio: pcm_s16le, 48000 Hz, stereo, s16, 1536 kb/s (default)
      Metadata:
        HANDLER_NAME    : SoundHandler
        VENDOR_ID       : [0][0][0][0]
        _STATISTICS_TAGS: BPS DURATION NUMBER_OF_FRAMES NUMBER_OF_BYTES
        BPS             : 193704
        DURATION        : 00:23:30.645000000
        NUMBER_OF_FRAMES: 66125
        NUMBER_OF_BYTES : 34156099
        _STATISTICS_WRITING_APP: mkvpropedit v66.0.0 ('Josie') 64-bit
        _STATISTICS_WRITING_DATE_UTC: 2025-06-05 09:33:36
        encoder         : Lavc61.19.100 pcm_s16le
frame=  168 fps=0.0 q=-0.0 size=N/A time=00:00:07.00 bitrate=N/A speed=13.6x    frame=  388 fps=377 q=-0.0 size=N/A time=00:00:16.18 bitrate=N/A speed=15.7x    frame=  648 fps=421 q=-0.0 size=N/A time=00:00:27.02 bitrate=N/A speed=17.6x    frame=  924 fps=448 q=-0.0 size=N/A time=00:00:38.53 bitrate=N/A speed=18.7x    frame= 1176 fps=457 q=-0.0 size=N/A time=00:00:49.04 bitrate=N/A speed=19.1x    frame= 1440 fps=467 q=-0.0 size=N/A time=00:01:00.06 bitrate=N/A speed=19.5x    frame= 1690 fps=468 q=-0.0 size=N/A time=00:01:10.48 bitrate=N/A speed=19.5x    frame= 1944 fps=472 q=-0.0 size=N/A time=00:01:21.08 bitrate=N/A speed=19.7x    frame= 2149 fps=464 q=-0.0 size=N/A time=00:01:29.63 bitrate=N/A speed=19.4x    frame= 2345 fps=455 q=-0.0 size=N/A time=00:01:37.80 bitrate=N/A speed=  19x    frame= 2551 fps=450 q=-0.0 size=N/A time=00:01:46.39 bitrate=N/A speed=18.8x    frame= 2793 fps=451 q=-0.0 size=N/A time=00:01:56.49 bitrate=N/A speed=18.8x    frame= 3024 fps=450 q=-0.0 size=N/A time=00:02:06.12 bitrate=N/A speed=18.8x    frame= 3208 fps=444 q=-0.0 size=N/A time=00:02:13.80 bitrate=N/A speed=18.5x    frame= 3450 fps=446 q=-0.0 size=N/A time=00:02:23.89 bitrate=N/A speed=18.6x    frame= 3675 fps=445 q=-0.0 size=N/A time=00:02:33.27 bitrate=N/A speed=18.5x    frame= 3884 fps=443 q=-0.0 size=N/A time=00:02:41.99 bitrate=N/A speed=18.5x    frame= 4075 fps=438 q=-0.0 size=N/A time=00:02:49.96 bitrate=N/A speed=18.3x    frame= 4268 fps=435 q=-0.0 size=N/A time=00:02:58.01 bitrate=N/A speed=18.1x    frame= 4468 fps=433 q=-0.0 size=N/A time=00:03:06.35 bitrate=N/A speed=  18x    frame= 4677 fps=431 q=-0.0 size=N/A time=00:03:15.06 bitrate=N/A speed=  18x    frame= 4849 fps=427 q=-0.0 size=N/A time=00:03:22.24 bitrate=N/A speed=17.8x    frame= 5078 fps=427 q=-0.0 size=N/A time=00:03:31.79 bitrate=N/A speed=17.8x    frame= 5350 fps=431 q=-0.0 size=N/A time=00:03:43.13 bitrate=N/A speed=  18x    frame= 5592 fps=433 q=-0.0 size=N/A time=00:03:53.23 bitrate=N/A speed=18.1x    frame= 5867 fps=437 q=-0.0 size=N/A time=00:04:04.70 bitrate=N/A speed=18.2x    frame= 6107 fps=438 q=-0.0 size=N/A time=00:04:14.71 bitrate=N/A speed=18.3x    frame= 6310 fps=436 q=-0.0 size=N/A time=00:04:23.17 bitrate=N/A speed=18.2x    frame= 6545 fps=437 q=-0.0 size=N/A time=00:04:32.98 bitrate=N/A speed=18.2x    frame= 6794 fps=438 q=-0.0 size=N/A time=00:04:43.36 bitrate=N/A speed=18.3x    frame= 7045 fps=440 q=-0.0 size=N/A time=00:04:53.83 bitrate=N/A speed=18.4x    frame= 7323 fps=443 q=-0.0 size=N/A time=00:05:05.43 bitrate=N/A speed=18.5x    frame= 7592 fps=446 q=-0.0 size=N/A time=00:05:16.64 bitrate=N/A speed=18.6x    frame= 7857 fps=447 q=-0.0 size=N/A time=00:05:27.70 bitrate=N/A speed=18.7x    frame= 8129 fps=449 q=-0.0 size=N/A time=00:05:39.04 bitrate=N/A speed=18.7x    frame= 8390 fps=451 q=-0.0 size=N/A time=00:05:49.93 bitrate=N/A speed=18.8x    frame= 8651 fps=453 q=-0.0 size=N/A time=00:06:00.81 bitrate=N/A speed=18.9x    frame= 8919 fps=454 q=-0.0 size=N/A time=00:06:11.99 bitrate=N/A speed=18.9x    frame= 9208 fps=457 q=-0.0 size=N/A time=00:06:24.05 bitrate=N/A speed=19.1x    frame= 9493 fps=459 q=-0.0 size=N/A time=00:06:35.93 bitrate=N/A speed=19.2x    frame= 9782 fps=462 q=-0.0 size=N/A time=00:06:47.99 bitrate=N/A speed=19.3x    frame=10023 fps=462 q=-0.0 size=N/A time=00:06:58.04 bitrate=N/A speed=19.3x    frame=10287 fps=463 q=-0.0 size=N/A time=00:07:09.05 bitrate=N/A speed=19.3x    frame=10549 fps=464 q=-0.0 size=N/A time=00:07:19.98 bitrate=N/A speed=19.4x    frame=10810 fps=465 q=-0.0 size=N/A time=00:07:30.86 bitrate=N/A speed=19.4x    frame=11083 fps=466 q=-0.0 size=N/A time=00:07:42.25 bitrate=N/A speed=19.5x    frame=11308 fps=466 q=-0.0 size=N/A time=00:07:51.63 bitrate=N/A speed=19.4x    frame=11564 fps=467 q=-0.0 size=N/A time=00:08:02.31 bitrate=N/A speed=19.5x    frame=11823 fps=467 q=-0.0 size=N/A time=00:08:13.11 bitrate=N/A speed=19.5x    frame=12089 fps=468 q=-0.0 size=N/A time=00:08:24.21 bitrate=N/A speed=19.5x    frame=12346 fps=469 q=-0.0 size=N/A time=00:08:34.93 bitrate=N/A speed=19.6x    frame=12606 fps=469 q=-0.0 size=N/A time=00:08:45.77 bitrate=N/A speed=19.6x    frame=12861 fps=470 q=-0.0 size=N/A time=00:08:56.41 bitrate=N/A speed=19.6x    frame=13099 fps=470 q=-0.0 size=N/A time=00:09:06.33 bitrate=N/A speed=19.6x    frame=13323 fps=469 q=-0.0 size=N/A time=00:09:15.68 bitrate=N/A speed=19.6x    frame=13575 fps=470 q=-0.0 size=N/A time=00:09:26.19 bitrate=N/A speed=19.6x    frame=13833 fps=470 q=-0.0 size=N/A time=00:09:36.95 bitrate=N/A speed=19.6x    frame=14053 fps=469 q=-0.0 size=N/A time=00:09:46.12 bitrate=N/A speed=19.6x    frame=14254 fps=468 q=-0.0 size=N/A time=00:09:54.51 bitrate=N/A speed=19.5x    frame=14504 fps=468 q=-0.0 size=N/A time=00:10:04.93 bitrate=N/A speed=19.5x    frame=14752 fps=468 q=-0.0 size=N/A time=00:10:15.28 bitrate=N/A speed=19.5x    frame=14937 fps=467 q=-0.0 size=N/A time=00:10:22.99 bitrate=N/A speed=19.5x    frame=15197 fps=467 q=-0.0 size=N/A time=00:10:33.84 bitrate=N/A speed=19.5x    frame=15405 fps=466 q=-0.0 size=N/A time=00:10:42.51 bitrate=N/A speed=19.4x    frame=15571 fps=464 q=-0.0 size=N/A time=00:10:49.44 bitrate=N/A speed=19.4x    frame=15759 fps=463 q=-0.0 size=N/A time=00:10:57.28 bitrate=N/A speed=19.3x    frame=16004 fps=463 q=-0.0 size=N/A time=00:11:07.50 bitrate=N/A speed=19.3x    frame=16241 fps=463 q=-0.0 size=N/A time=00:11:17.38 bitrate=N/A speed=19.3x    frame=16497 fps=463 q=-0.0 size=N/A time=00:11:28.06 bitrate=N/A speed=19.3x    frame=16763 fps=464 q=-0.0 size=N/A time=00:11:39.15 bitrate=N/A speed=19.4x    frame=17012 fps=464 q=-0.0 size=N/A time=00:11:49.54 bitrate=N/A speed=19.4x    frame=17270 fps=465 q=-0.0 size=N/A time=00:12:00.30 bitrate=N/A speed=19.4x    frame=17487 fps=464 q=-0.0 size=N/A time=00:12:09.35 bitrate=N/A speed=19.4x    frame=17714 fps=464 q=-0.0 size=N/A time=00:12:18.82 bitrate=N/A speed=19.3x    frame=17943 fps=463 q=-0.0 size=N/A time=00:12:28.37 bitrate=N/A speed=19.3x    frame=18159 fps=463 q=-0.0 size=N/A time=00:12:37.38 bitrate=N/A speed=19.3x    frame=18401 fps=463 q=-0.0 size=N/A time=00:12:47.47 bitrate=N/A speed=19.3x    frame=18657 fps=463 q=-0.0 size=N/A time=00:12:58.15 bitrate=N/A speed=19.3x    frame=18910 fps=464 q=-0.0 size=N/A time=00:13:08.70 bitrate=N/A speed=19.3x    frame=19145 fps=464 q=-0.0 size=N/A time=00:13:18.50 bitrate=N/A speed=19.3x    frame=19387 fps=464 q=-0.0 size=N/A time=00:13:28.59 bitrate=N/A speed=19.3x    frame=19652 fps=464 q=-0.0 size=N/A time=00:13:39.65 bitrate=N/A speed=19.4x    frame=19912 fps=465 q=-0.0 size=N/A time=00:13:50.49 bitrate=N/A speed=19.4x    frame=20131 fps=464 q=-0.0 size=N/A time=00:13:59.63 bitrate=N/A speed=19.4x    frame=20347 fps=464 q=-0.0 size=N/A time=00:14:08.63 bitrate=N/A speed=19.3x    frame=20582 fps=464 q=-0.0 size=N/A time=00:14:18.44 bitrate=N/A speed=19.3x    frame=20780 fps=463 q=-0.0 size=N/A time=00:14:26.69 bitrate=N/A speed=19.3x    frame=20988 fps=462 q=-0.0 size=N/A time=00:14:35.37 bitrate=N/A speed=19.3x    frame=21201 fps=462 q=-0.0 size=N/A time=00:14:44.25 bitrate=N/A speed=19.2x    frame=21426 fps=461 q=-0.0 size=N/A time=00:14:53.64 bitrate=N/A speed=19.2x    frame=21677 fps=461 q=-0.0 size=N/A time=00:15:04.11 bitrate=N/A speed=19.2x    frame=21908 fps=461 q=-0.0 size=N/A time=00:15:13.74 bitrate=N/A speed=19.2x    frame=22150 fps=462 q=-0.0 size=N/A time=00:15:23.83 bitrate=N/A speed=19.2x    frame=22444 fps=463 q=-0.0 size=N/A time=00:15:36.10 bitrate=N/A speed=19.3x    frame=22676 fps=462 q=-0.0 size=N/A time=00:15:45.77 bitrate=N/A speed=19.3x    frame=22957 fps=463 q=-0.0 size=N/A time=00:15:57.49 bitrate=N/A speed=19.3x    frame=23228 fps=464 q=-0.0 size=N/A time=00:16:08.80 bitrate=N/A speed=19.4x    frame=23469 fps=464 q=-0.0 size=N/A time=00:16:18.85 bitrate=N/A speed=19.4x    frame=23725 fps=464 q=-0.0 size=N/A time=00:16:29.53 bitrate=N/A speed=19.4x    frame=23928 fps=464 q=-0.0 size=N/A time=00:16:37.99 bitrate=N/A speed=19.3x    frame=24192 fps=464 q=-0.0 size=N/A time=00:16:49.00 bitrate=N/A speed=19.4x    frame=24475 fps=465 q=-0.0 size=N/A time=00:17:00.81 bitrate=N/A speed=19.4x    frame=24764 fps=466 q=-0.0 size=N/A time=00:17:12.86 bitrate=N/A speed=19.4x    frame=25021 fps=466 q=-0.0 size=N/A time=00:17:23.58 bitrate=N/A speed=19.4x    frame=25299 fps=467 q=-0.0 size=N/A time=00:17:35.17 bitrate=N/A speed=19.5x    frame=25581 fps=468 q=-0.0 size=N/A time=00:17:46.94 bitrate=N/A speed=19.5x    frame=25858 fps=468 q=-0.0 size=N/A time=00:17:58.49 bitrate=N/A speed=19.5x    frame=26131 fps=469 q=-0.0 size=N/A time=00:18:09.88 bitrate=N/A speed=19.6x    frame=26394 fps=469 q=-0.0 size=N/A time=00:18:20.84 bitrate=N/A speed=19.6x    frame=26657 fps=470 q=-0.0 size=N/A time=00:18:31.81 bitrate=N/A speed=19.6x    frame=26900 fps=470 q=-0.0 size=N/A time=00:18:41.95 bitrate=N/A speed=19.6x    frame=27154 fps=470 q=-0.0 size=N/A time=00:18:52.54 bitrate=N/A speed=19.6x    frame=27383 fps=470 q=-0.0 size=N/A time=00:19:02.09 bitrate=N/A speed=19.6x    frame=27671 fps=470 q=-0.0 size=N/A time=00:19:14.11 bitrate=N/A speed=19.6x    frame=27957 fps=471 q=-0.0 size=N/A time=00:19:26.03 bitrate=N/A speed=19.6x    frame=28240 fps=472 q=-0.0 size=N/A time=00:19:37.84 bitrate=N/A speed=19.7x    frame=28531 fps=473 q=-0.0 size=N/A time=00:19:49.98 bitrate=N/A speed=19.7x    frame=28806 fps=473 q=-0.0 size=N/A time=00:20:01.45 bitrate=N/A speed=19.7x    frame=29079 fps=474 q=-0.0 size=N/A time=00:20:12.83 bitrate=N/A speed=19.8x    frame=29352 fps=474 q=-0.0 size=N/A time=00:20:24.22 bitrate=N/A speed=19.8x    frame=29600 fps=474 q=-0.0 size=N/A time=00:20:34.56 bitrate=N/A speed=19.8x    frame=29858 fps=474 q=-0.0 size=N/A time=00:20:45.32 bitrate=N/A speed=19.8x    frame=30096 fps=474 q=-0.0 size=N/A time=00:20:55.25 bitrate=N/A speed=19.8x    frame=30367 fps=475 q=-0.0 size=N/A time=00:21:06.55 bitrate=N/A speed=19.8x    frame=30643 fps=475 q=-0.0 size=N/A time=00:21:18.06 bitrate=N/A speed=19.8x    frame=30909 fps=475 q=-0.0 size=N/A time=00:21:29.16 bitrate=N/A speed=19.8x    frame=31160 fps=476 q=-0.0 size=N/A time=00:21:39.63 bitrate=N/A speed=19.8x    frame=31376 fps=475 q=-0.0 size=N/A time=00:21:48.64 bitrate=N/A speed=19.8x    frame=31599 fps=475 q=-0.0 size=N/A time=00:21:57.94 bitrate=N/A speed=19.8x    frame=31799 fps=474 q=-0.0 size=N/A time=00:22:06.28 bitrate=N/A speed=19.8x    frame=31997 fps=473 q=-0.0 size=N/A time=00:22:14.54 bitrate=N/A speed=19.7x    frame=32189 fps=473 q=-0.0 size=N/A time=00:22:22.54 bitrate=N/A speed=19.7x    frame=32403 fps=472 q=-0.0 size=N/A time=00:22:31.47 bitrate=N/A speed=19.7x    frame=32611 fps=472 q=-0.0 size=N/A time=00:22:40.15 bitrate=N/A speed=19.7x    frame=32834 fps=471 q=-0.0 size=N/A time=00:22:49.45 bitrate=N/A speed=19.7x    frame=33055 fps=471 q=-0.0 size=N/A time=00:22:58.66 bitrate=N/A speed=19.6x    frame=33252 fps=470 q=-0.0 size=N/A time=00:23:06.88 bitrate=N/A speed=19.6x    frame=33465 fps=470 q=-0.0 size=N/A time=00:23:15.81 bitrate=N/A speed=19.6x    frame=33723 fps=470 q=-0.0 size=N/A time=00:23:26.53 bitrate=N/A speed=19.6x    [Parsed_psnr_10 @ 000002d9e084ce00] PSNR y:48.943086 u:50.547986 v:50.977408 average:49.467898 min:41.557424 max:inf
[out#0/null @ 000002d9e0f1ba00] video:14531KiB audio:264500KiB subtitle:0KiB other streams:0KiB global headers:0KiB muxing overhead: unknown
frame=33817 fps=471 q=-0.0 Lsize=N/A time=00:23:30.45 bitrate=N/A speed=19.6x    
